<svg viewBox="0 0 131 159" fill="none" xmlns="http://www.w3.org/2000/svg">
<path d="M91.9088 158.433H38.7716C17.5795 158.433 0.337891 141.103 0.337891 119.805V13.8632C0.337891 6.47922 6.31893 0.475098 13.666 0.475098H117.01C124.361 0.475098 130.338 6.47922 130.338 13.8632V119.805C130.338 141.103 113.096 158.433 91.9042 158.433H91.9088ZM13.666 4.94704C8.78334 4.94704 4.80983 8.94824 4.80983 13.8632V119.805C4.80983 138.639 20.0439 153.961 38.7716 153.961H91.9088C110.636 153.961 125.871 138.639 125.871 119.805V13.8632C125.871 8.94363 121.897 4.94704 117.014 4.94704H13.666ZM100.548 42.5085V30.7957C100.548 30.0849 99.9712 29.5081 99.2605 29.5081H31.4153C30.7046 29.5081 30.1277 30.0849 30.1277 30.7957V42.5085C30.1277 43.2192 30.7046 43.7961 31.4153 43.7961H57.8408V54.3276H33.3029C32.5921 54.3276 32.0153 54.9044 32.0153 55.6151V88.617C32.0153 89.8538 32.8967 90.9199 34.1151 91.146L57.8408 95.5534V102.374C57.8408 103.634 58.75 104.705 59.9914 104.913L72.8396 107.04V98.3408L83.6664 100.353V113.252H47.014V104.497C47.014 103.787 46.4371 103.21 45.7264 103.21H33.2982C32.5875 103.21 32.0107 103.787 32.0107 104.497V122.173C32.0107 125.136 34.4151 127.54 37.3779 127.54H93.2979C96.2607 127.54 98.6651 125.136 98.6651 122.173V90.7492C98.6651 89.5123 97.7837 88.4463 96.5653 88.2201L72.8396 83.8128V68.6156H83.6664V76.2996C83.6664 77.0103 84.2432 77.5872 84.954 77.5872H97.3822C98.0929 77.5872 98.6697 77.0103 98.6697 76.2996V55.6151C98.6697 54.9044 98.0929 54.3276 97.3822 54.3276H72.8396V43.7961H99.2651C99.9758 43.7961 100.553 43.2192 100.553 42.5085H100.548ZM57.8408 81.0207L47.014 79.0086V68.611H57.8408V81.0207ZM91.115 151.93H39.5608C21.6869 151.93 7.14502 137.388 7.14502 119.514V14.5739C7.14502 10.3835 10.5555 6.97302 14.7459 6.97302H115.93C120.12 6.97302 123.531 10.3835 123.531 14.5739V119.514C123.531 137.388 108.989 151.93 91.115 151.93ZM14.7505 11.445C13.0245 11.445 11.6216 12.8479 11.6216 14.5739V119.514C11.6216 134.924 24.1559 147.458 39.5654 147.458H91.1196C106.529 147.458 119.063 134.924 119.063 119.514V14.5739C119.063 12.8479 117.66 11.445 115.934 11.445H14.7505Z" fill="#ff6a34"/>
</svg>
