<svg width="237" height="107" viewBox="0 0 237 107" fill="none" xmlns="http://www.w3.org/2000/svg">
<g clip-path="url(#clip0_193_5)">
<path d="M14.3937 50.1336C11.6031 50.1336 8.95935 49.9412 6.46248 49.5472C3.96561 49.1532 1.98281 48.6677 0.514061 48.0813V39.0661C2.23066 39.799 4.21347 40.3579 6.46248 40.7518C8.7115 41.1458 10.7218 41.3382 12.4843 41.3382C14.5865 41.3382 16.1195 41.2374 17.0742 41.045C18.0289 40.8526 18.5062 40.3121 18.5062 39.4325C18.5062 38.4522 17.7259 37.7193 16.1562 37.2337C14.5865 36.7481 12.4384 36.0335 9.69372 35.1082C6.50838 33.9813 4.10331 32.6803 2.46015 31.1869C0.81699 29.6935 0 27.4855 0 24.5537C0 21.1364 1.28515 18.5069 3.85546 16.6746C6.42576 14.8422 10.5291 13.926 16.1562 13.926C18.3593 13.926 20.5349 14.1001 22.6921 14.4391C24.8493 14.7781 26.6118 15.172 27.9796 15.6118V24.4804C26.6118 23.8483 25.0421 23.381 23.2796 23.0879C21.5171 22.7947 19.929 22.6481 18.5062 22.6481C16.6978 22.6481 15.1648 22.758 13.9164 22.9779C12.6679 23.1978 12.0437 23.72 12.0437 24.5537C12.0437 25.4791 12.7322 26.1296 14.1 26.496C15.4677 26.8625 17.4505 27.458 20.0484 28.2918C22.7931 29.1255 24.9228 30.0142 26.4374 30.967C27.9521 31.9198 29.0353 33.0559 29.6687 34.3752C30.3021 35.6945 30.6234 37.3528 30.6234 39.3592C30.6234 42.8316 29.2556 45.4885 26.5109 47.3484C23.7661 49.2082 19.7271 50.1336 14.3937 50.1336Z" fill="#CBEAFE"/>
<path d="M36.6453 65.2322V14.659H46.9265L47.514 17.6641C48.9368 16.4913 50.5249 15.5752 52.2874 14.9155C54.0499 14.2559 56.1061 13.926 58.4561 13.926C63.404 13.926 67.3145 15.2637 70.2061 17.9206C73.0977 20.5867 74.5389 25.0393 74.5389 31.2968C74.5389 37.5544 73.061 42.1903 70.096 45.3694C67.1309 48.5486 63.0552 50.1336 57.8686 50.1336C54.1968 50.1336 51.0665 49.3731 48.4687 47.8614V65.2322H36.6453ZM54.8577 41.4848C59.9524 41.4848 62.4952 38.0125 62.4952 31.077C62.4952 27.7512 61.9077 25.5066 60.7327 24.3339C59.5577 23.1611 57.6759 22.5748 55.078 22.5748C52.4802 22.5748 50.378 23.4543 48.4687 25.2134V39.286C49.3958 39.9731 50.3413 40.5045 51.296 40.8984C52.2507 41.2924 53.4349 41.4848 54.8577 41.4848Z" fill="#CBEAFE"/>
<path d="M91.4295 50.1336C89.2264 50.1336 87.1793 49.7396 85.2975 48.9608C83.4157 48.1821 81.9102 46.9727 80.7811 45.3328C79.652 43.6928 79.092 41.6589 79.092 39.2127C79.092 35.6487 80.3038 32.8452 82.7272 30.8204C85.1506 28.7957 88.7858 27.7787 93.6326 27.7787H103.326V26.9725C103.326 25.2134 102.739 23.9582 101.564 23.1978C100.389 22.4374 98.1857 22.0617 94.9545 22.0617C90.9889 22.0617 87.0967 22.6756 83.278 23.8941V16.2715C84.9946 15.5843 87.0875 15.0254 89.5569 14.5857C92.0262 14.1459 94.6332 13.926 97.3779 13.926C102.766 13.926 106.989 15.0254 110.046 17.2243C113.103 19.4231 114.636 22.9138 114.636 27.7054V49.4006H104.281L103.694 46.4688C102.418 47.6415 100.793 48.5486 98.81 49.1807C96.8271 49.8129 94.367 50.1336 91.4295 50.1336ZM95.1748 42.8774C97.0383 42.8774 98.6539 42.5567 100.022 41.9246C101.389 41.2924 102.491 40.4862 103.326 39.5058V34.5951H94.9545C91.4754 34.5951 89.7404 35.9877 89.7404 38.7729C89.7404 40.0464 90.1811 41.045 91.0623 41.778C91.9436 42.5109 93.3113 42.8774 95.1748 42.8774Z" fill="#CBEAFE"/>
<path d="M121.759 49.4006V14.659H132.995L133.362 17.8839C134.877 16.9586 136.768 16.1157 139.017 15.3553C141.266 14.5948 143.524 14.1184 145.773 13.926V22.7947C144.497 22.9413 143.093 23.1703 141.55 23.491C140.008 23.8116 138.539 24.1873 137.144 24.627C135.749 25.0668 134.565 25.5341 133.582 26.0196V49.4006H121.759Z" fill="#CBEAFE"/>
<path d="M150.253 49.4006V0H162.076V25.7997L173.459 14.6589H186.898L172.945 29.098L187.706 49.4006H175.148L165.528 35.328L162.076 38.6995V49.4006H150.253Z" fill="#CBEAFE"/>
<path d="M84.4712 105.728V70.9859H95.4134L95.7805 74.0642C97.3503 72.9373 99.1128 72.0212 101.068 71.3157C103.023 70.6102 105.135 70.2529 107.384 70.2529C109.633 70.2529 111.57 70.6102 112.891 71.3157C114.213 72.0212 115.241 73.0106 115.976 74.2841C117.591 73.1114 119.418 72.1494 121.447 71.389C123.476 70.6286 125.862 70.2529 128.607 70.2529C132.674 70.2529 135.657 71.3065 137.566 73.4046C139.476 75.5027 140.43 78.7093 140.43 83.0062V105.728H128.754V84.3988C128.754 82.4931 128.35 81.1097 127.542 80.2576C126.734 79.4056 125.422 78.975 123.613 78.975C122.484 78.975 121.383 79.204 120.309 79.6713C119.235 80.1385 118.326 80.7799 117.591 81.6136C117.692 82.1541 117.747 82.6672 117.775 83.1528C117.803 83.6384 117.812 84.2247 117.812 84.9118V105.728H106.796V84.2522C106.796 82.4931 106.493 81.1738 105.878 80.2943C105.263 79.4148 104.106 78.975 102.39 78.975C101.169 78.975 100.012 79.2956 98.9383 79.9278C97.8643 80.56 96.8821 81.2929 96.0009 82.1267V105.728H84.4712Z" fill="#CBEAFE"/>
<path d="M150.859 105.727V79.7079H145.718L146.746 70.9859H162.682V105.727H150.859ZM149.904 65.4888V56.6201H162.755V65.4888H149.904Z" fill="#CBEAFE"/>
<path d="M170.246 105.728V70.9859H181.262L181.629 73.991C183.052 73.0106 184.833 72.1494 186.99 71.389C189.147 70.6286 191.442 70.2529 193.893 70.2529C198.4 70.2529 201.677 71.3249 203.734 73.4779C205.79 75.6309 206.818 78.9475 206.818 83.446V105.728H194.994V84.3988C194.994 82.4473 194.581 81.0547 193.746 80.221C192.911 79.3873 191.424 78.975 189.266 78.975C187.99 78.975 186.696 79.2682 185.374 79.8545C184.052 80.4409 182.951 81.1738 182.069 82.0534V105.728H170.246Z" fill="#CBEAFE"/>
<path d="M228.252 106.46C223.947 106.46 220.771 105.361 218.742 103.162C216.713 100.963 215.694 97.9308 215.694 94.0736V79.9278H210.995V70.9858H215.694V63.7297L227.518 60.578V70.9858H235.963L235.449 79.9278H227.518V93.2674C227.518 94.9257 227.931 96.0892 228.766 96.7489C229.602 97.4085 230.85 97.7384 232.512 97.7384C233.934 97.7384 235.376 97.491 236.844 97.0054V104.995C234.54 105.975 231.676 106.46 228.252 106.46Z" fill="#CBEAFE"/>
<path d="M204.936 14.8605C204.936 19.533 204.936 24.7461 208.755 28.0443C211.013 30.1699 214.988 31.5533 221.239 31.5533V32.5061C214.997 32.5061 211.013 33.8896 208.755 36.0151C204.936 39.4142 204.936 44.6272 204.936 49.199H203.375C203.375 44.6272 203.375 39.4142 199.557 36.0151C197.133 33.8896 193.324 32.5061 187.082 32.5061V31.5533C193.315 31.5533 197.133 30.1699 199.557 28.0443C203.375 24.7461 203.375 19.5422 203.375 14.8605H204.936Z" fill="#CBEAFE"/>
<path d="M58.1807 101.037V93.9179H50.4514V85.3699H58.1807V78.187H66.8004V85.3699H74.5297V93.9179H66.8004V101.037H58.1807Z" fill="#CBEAFE"/>
</g>
<defs>
<clipPath id="clip0_193_5">
<rect width="236.844" height="106.46" fill="white"/>
</clipPath>
</defs>
</svg>
