<svg width="307" height="54" viewBox="0 0 307 54" fill="none" xmlns="http://www.w3.org/2000/svg">
<path d="M12 41V9.8H0.66V2.36H33V9.8H21.66V41H12ZM47.4797 41.6C42.5197 41.6 38.5397 40.38 35.5397 37.94C32.5397 35.46 31.0397 31.74 31.0397 26.78C31.0397 22.26 32.2797 18.66 34.7597 15.98C37.2397 13.3 40.9597 11.96 45.9197 11.96C50.4397 11.96 53.9397 13.12 56.4197 15.44C58.8997 17.76 60.1397 20.88 60.1397 24.8V29.9H39.9797C40.4197 31.78 41.4397 33.1 43.0397 33.86C44.6797 34.58 46.8997 34.94 49.6997 34.94C51.2597 34.94 52.8397 34.8 54.4397 34.52C56.0797 34.24 57.4397 33.88 58.5197 33.44V39.74C57.1597 40.38 55.5397 40.84 53.6597 41.12C51.7797 41.44 49.7197 41.6 47.4797 41.6ZM39.9797 24.32H51.7397V23.06C51.7397 21.66 51.3197 20.56 50.4797 19.76C49.6397 18.92 48.2197 18.5 46.2197 18.5C43.8997 18.5 42.2797 18.98 41.3597 19.94C40.4397 20.86 39.9797 22.32 39.9797 24.32ZM73.9322 41.6C72.1322 41.6 70.4522 41.28 68.8922 40.64C67.3722 40 66.1522 39.02 65.2322 37.7C64.3122 36.34 63.8522 34.66 63.8522 32.66C63.8522 29.74 64.8322 27.46 66.7922 25.82C68.7922 24.14 71.7722 23.3 75.7322 23.3H83.6522V22.64C83.6522 21.2 83.1722 20.18 82.2122 19.58C81.2522 18.94 79.4522 18.62 76.8122 18.62C73.5722 18.62 70.3922 19.12 67.2722 20.12V13.88C68.6722 13.32 70.3722 12.86 72.3722 12.5C74.4122 12.14 76.5522 11.96 78.7922 11.96C83.1922 11.96 86.6322 12.86 89.1122 14.66C91.6322 16.46 92.8922 19.32 92.8922 23.24V41H84.4322L83.9522 38.6C82.9122 39.56 81.5722 40.3 79.9322 40.82C78.3322 41.34 76.3322 41.6 73.9322 41.6ZM76.9922 35.66C78.5122 35.66 79.8322 35.4 80.9522 34.88C82.0722 34.36 82.9722 33.7 83.6522 32.9V28.88H76.8122C73.9722 28.88 72.5522 30.02 72.5522 32.3C72.5522 33.34 72.9122 34.16 73.6322 34.76C74.3522 35.36 75.4722 35.66 76.9922 35.66ZM98.685 41V12.56H107.625L107.925 15.08C109.205 14.16 110.645 13.42 112.245 12.86C113.845 12.26 115.565 11.96 117.405 11.96C119.325 11.96 120.825 12.26 121.905 12.86C122.985 13.42 123.825 14.22 124.425 15.26C125.745 14.3 127.225 13.52 128.865 12.92C130.545 12.28 132.505 11.96 134.745 11.96C138.065 11.96 140.505 12.82 142.065 14.54C143.625 16.26 144.405 18.88 144.405 22.4V41H134.865V23.54C134.865 21.98 134.525 20.86 133.845 20.18C133.205 19.46 132.145 19.1 130.665 19.1C129.745 19.1 128.845 19.3 127.965 19.7C127.085 20.06 126.345 20.58 125.745 21.26C125.825 21.7 125.865 22.12 125.865 22.52C125.905 22.92 125.925 23.4 125.925 23.96V41H116.925V23.42C116.925 21.98 116.665 20.9 116.145 20.18C115.665 19.46 114.725 19.1 113.325 19.1C112.325 19.1 111.385 19.36 110.505 19.88C109.625 20.4 108.825 21 108.105 21.68V41H98.685ZM162.548 41.6C159.988 41.6 157.588 41.4 155.348 41C153.148 40.64 151.248 40.1 149.648 39.38V31.16C151.408 31.92 153.348 32.54 155.468 33.02C157.628 33.5 159.668 33.74 161.588 33.74C163.988 33.74 165.768 33.52 166.928 33.08C168.128 32.64 168.728 31.68 168.728 30.2C168.728 29.2 168.428 28.4 167.828 27.8C167.268 27.2 166.328 26.68 165.008 26.24C163.728 25.76 161.968 25.2 159.728 24.56C157.088 23.76 154.988 22.88 153.428 21.92C151.868 20.92 150.748 19.72 150.068 18.32C149.388 16.92 149.048 15.2 149.048 13.16C149.048 9.48 150.368 6.66 153.008 4.7C155.648 2.74 159.548 1.76 164.708 1.76C166.948 1.76 169.128 1.94 171.248 2.3C173.368 2.62 175.088 3 176.408 3.44V11.72C174.688 11.04 172.948 10.54 171.188 10.22C169.468 9.9 167.788 9.74 166.148 9.74C163.988 9.74 162.228 9.94 160.868 10.34C159.548 10.74 158.888 11.66 158.888 13.1C158.888 13.94 159.128 14.62 159.608 15.14C160.088 15.62 160.908 16.06 162.068 16.46C163.268 16.86 164.888 17.34 166.928 17.9C170.088 18.74 172.508 19.76 174.188 20.96C175.868 22.12 177.028 23.48 177.668 25.04C178.308 26.56 178.628 28.28 178.628 30.2C178.628 33.6 177.308 36.36 174.668 38.48C172.028 40.56 167.988 41.6 162.548 41.6ZM183.529 53.96V12.56H191.929L192.409 15.02C193.569 14.06 194.869 13.32 196.309 12.8C197.749 12.24 199.429 11.96 201.349 11.96C205.389 11.96 208.589 13.06 210.949 15.26C213.309 17.42 214.489 21.06 214.489 26.18C214.489 31.26 213.269 35.1 210.829 37.7C208.429 40.3 205.109 41.6 200.869 41.6C197.869 41.6 195.309 40.98 193.189 39.74V53.96H183.529ZM198.409 34.52C202.569 34.52 204.649 31.68 204.649 26C204.649 23.28 204.169 21.44 203.209 20.48C202.249 19.52 200.709 19.04 198.589 19.04C196.549 19.04 194.749 19.76 193.189 21.2V32.72C193.949 33.28 194.709 33.72 195.469 34.04C196.269 34.36 197.249 34.52 198.409 34.52ZM228.268 41.6C226.468 41.6 224.788 41.28 223.228 40.64C221.708 40 220.488 39.02 219.568 37.7C218.648 36.34 218.188 34.66 218.188 32.66C218.188 29.74 219.168 27.46 221.128 25.82C223.128 24.14 226.108 23.3 230.068 23.3H237.988V22.64C237.988 21.2 237.508 20.18 236.548 19.58C235.588 18.94 233.788 18.62 231.148 18.62C227.908 18.62 224.728 19.12 221.608 20.12V13.88C223.008 13.32 224.708 12.86 226.708 12.5C228.748 12.14 230.888 11.96 233.128 11.96C237.528 11.96 240.968 12.86 243.448 14.66C245.968 16.46 247.228 19.32 247.228 23.24V41H238.768L238.288 38.6C237.248 39.56 235.908 40.3 234.268 40.82C232.668 41.34 230.668 41.6 228.268 41.6ZM231.328 35.66C232.848 35.66 234.168 35.4 235.288 34.88C236.408 34.36 237.308 33.7 237.988 32.9V28.88H231.148C228.308 28.88 226.888 30.02 226.888 32.3C226.888 33.34 227.248 34.16 227.968 34.76C228.688 35.36 229.808 35.66 231.328 35.66ZM253.021 41V12.56H262.201L262.501 15.2C263.741 14.44 265.281 13.76 267.121 13.16C268.961 12.52 270.801 12.12 272.641 11.96V19.22C271.601 19.34 270.441 19.54 269.161 19.82C267.921 20.06 266.721 20.36 265.561 20.72C264.441 21.08 263.481 21.46 262.681 21.86V41H253.021ZM276.283 41V0.559999H285.943V21.68L295.243 12.56H306.223L294.823 24.38L306.883 41H296.623L288.763 29.48L285.943 32.24V41H276.283Z" fill="#CBEAFE"/>
</svg>
