<svg xmlns="http://www.w3.org/2000/svg" xmlns:xlink="http://www.w3.org/1999/xlink" version="1.1" x="0px" y="0px" viewBox="0 0 100 125" enable-background="new 0 0 100 100" xml:space="preserve"><g><path fill="none" d="M80.896,9.229h-60.48c-0.596,0-1.08,0.484-1.08,1.08v80.64c0,0.596,0.484,1.08,1.08,1.08h60.48   c0.595,0,1.08-0.484,1.08-1.08v-80.64C81.977,9.713,81.491,9.229,80.896,9.229z M39.51,37.213c0,0,0.587-0.8,1.975-1.334   c0,0,3.19-0.969,4.518-1.994c0.163-0.185,0.328-0.385,0.494-0.605c0.001-0.005,0.003-0.008,0.006-0.013   c0.025-0.079,0.23-0.693,0.23-0.861c0,0,0.003,0.025,0.012,0.067c0.055-0.412-0.005-0.706-0.005-0.706   c0.004,0.004,0.008,0.008,0.012,0.011c-0.54-0.76-0.968-1.635-1.216-2.533c-0.103-0.05-0.457-0.271-0.57-0.994   c0,0-0.331-1.185-0.148-1.638c-0.021-0.049-0.534-1.246-0.322-3.16c0,0,0.764-4.192,4.326-4.792c0,0,2.923-0.72,4.884,0.481   c2.122,0.801,2.523,2.603,2.523,2.603c1.128,1.905,0.329,4.375,0.282,4.517c0.153,0.241,0.251,0.716-0.082,1.649   c0,0-0.257,1.218-0.758,1.718c-0.293,0.814-0.737,1.614-1.283,2.313c0.026-0.027,0.039-0.041,0.039-0.041   c-0.009,0.162-0.005,0.313,0.007,0.455c0.019-0.081,0.027-0.128,0.027-0.128c0,0.144,0.156,0.727,0.219,0.955c0,0,0.001,0,0.001,0   c0,0,0,0.001,0,0.002c0.016,0.056,0.025,0.091,0.025,0.091c0,0.005,0,0.009,0,0.013c0.012,0.028,0.025,0.06,0.043,0.095   c0.152,0.296,0.653,0.875,2.298,1.454c0,0,4.404,1.389,5.125,2.99c0,0,2.401,1.733,1.841,6.593c0,0-0.022,0.399-0.827,0.906   c0,0-5.428,2.073-13.036,1.912c0,0-7.518-0.124-12.243-2.232c0,0-0.667-0.161-0.694-1.709   C37.214,43.297,37.455,40.256,39.51,37.213z M72.291,82.81h-43.27c-1.192,0-2.16-0.968-2.16-2.16s0.967-2.16,2.16-2.16h43.27   c1.192,0,2.159,0.968,2.159,2.16S73.483,82.81,72.291,82.81z M72.291,71.289h-43.27c-1.192,0-2.16-0.967-2.16-2.16   c0-1.192,0.967-2.159,2.16-2.159h43.27c1.192,0,2.159,0.967,2.159,2.159C74.45,70.322,73.483,71.289,72.291,71.289z M72.291,59.77   h-43.27c-1.192,0-2.16-0.968-2.16-2.16s0.967-2.16,2.16-2.16h43.27c1.192,0,2.159,0.968,2.159,2.16S73.483,59.77,72.291,59.77z"/><path d="M80.896,5.629h-60.48c-2.581,0-4.68,2.099-4.68,4.68v80.64c0,2.581,2.1,4.681,4.68,4.681h60.48c2.58,0,4.68-2.1,4.68-4.681   v-80.64C85.576,7.728,83.477,5.629,80.896,5.629z M81.977,90.948c0,0.596-0.485,1.08-1.08,1.08h-60.48   c-0.596,0-1.08-0.484-1.08-1.08v-80.64c0-0.596,0.484-1.08,1.08-1.08h60.48c0.595,0,1.08,0.484,1.08,1.08V90.948z"/><path d="M72.291,55.449h-43.27c-1.192,0-2.16,0.968-2.16,2.16s0.967,2.16,2.16,2.16h43.27c1.192,0,2.159-0.968,2.159-2.16   S73.483,55.449,72.291,55.449z"/><path d="M72.291,66.97h-43.27c-1.192,0-2.16,0.967-2.16,2.159c0,1.193,0.967,2.16,2.16,2.16h43.27c1.192,0,2.159-0.967,2.159-2.16   C74.45,67.937,73.483,66.97,72.291,66.97z"/><path d="M72.291,78.489h-43.27c-1.192,0-2.16,0.968-2.16,2.16s0.967,2.16,2.16,2.16h43.27c1.192,0,2.159-0.968,2.159-2.16   S73.483,78.489,72.291,78.489z"/><path d="M37.908,45.006c4.725,2.108,12.243,2.232,12.243,2.232c7.608,0.161,13.036-1.912,13.036-1.912   c0.805-0.507,0.827-0.906,0.827-0.906c0.561-4.859-1.841-6.593-1.841-6.593c-0.721-1.602-5.125-2.99-5.125-2.99   c-1.645-0.579-2.146-1.157-2.298-1.454c-0.018-0.035-0.031-0.067-0.043-0.095c0-0.004,0-0.008,0-0.013c0,0-0.01-0.035-0.025-0.091   c0-0.001,0-0.002,0-0.002c0,0-0.001,0-0.001,0c-0.063-0.229-0.219-0.812-0.219-0.955c0,0-0.009,0.047-0.027,0.128   c-0.012-0.142-0.016-0.292-0.007-0.455c0,0-0.013,0.014-0.039,0.041c0.546-0.7,0.99-1.499,1.283-2.313   c0.501-0.5,0.758-1.718,0.758-1.718c0.333-0.933,0.235-1.408,0.082-1.649c0.047-0.141,0.846-2.612-0.282-4.517   c0,0-0.401-1.802-2.523-2.603c-1.961-1.201-4.884-0.481-4.884-0.481c-3.563,0.601-4.326,4.792-4.326,4.792   c-0.212,1.914,0.3,3.11,0.322,3.16c-0.183,0.453,0.148,1.638,0.148,1.638c0.114,0.724,0.468,0.944,0.57,0.994   c0.248,0.898,0.676,1.773,1.216,2.533c-0.004-0.003-0.008-0.007-0.012-0.011c0,0,0.06,0.294,0.005,0.706   c-0.008-0.042-0.012-0.067-0.012-0.067c0,0.168-0.205,0.783-0.23,0.861c-0.003,0.005-0.005,0.008-0.006,0.013   c-0.166,0.221-0.331,0.421-0.494,0.605c-1.328,1.025-4.518,1.994-4.518,1.994c-1.388,0.534-1.975,1.334-1.975,1.334   c-2.055,3.043-2.296,6.084-2.296,6.084C37.241,44.845,37.908,45.006,37.908,45.006z"/></g><text x="0" y="115" fill="#000000" font-size="5px" font-weight="bold" font-family="'Helvetica Neue', Helvetica, Arial-Unicode, Arial, Sans-serif">Created by Wilson Joseph</text><text x="0" y="120" fill="#000000" font-size="5px" font-weight="bold" font-family="'Helvetica Neue', Helvetica, Arial-Unicode, Arial, Sans-serif">from the Noun Project</text></svg>