<svg width="35" height="35" viewBox="0 0 35 35" fill="none" xmlns="http://www.w3.org/2000/svg">
<g clip-path="url(#clip0_393_10)">
<path d="M7.03933 22.3012C7.03933 24.0326 7.03933 25.9581 8.36789 27.1771C9.15357 27.9641 10.5361 28.4731 12.7076 28.4731V28.8281C10.5395 28.8281 9.1502 29.3371 8.36789 30.1241C7.03933 31.3833 7.03933 33.3088 7.03933 35H6.49644C6.49644 33.3088 6.49644 31.3833 5.16788 30.1241C4.32488 29.3405 2.99969 28.8281 0.828125 28.8281V28.4731C2.99631 28.4731 4.32488 27.9641 5.16788 27.1771C6.49644 25.9581 6.49644 24.0326 6.49644 22.3012H7.03933Z" fill="#FFF5C0"/>
</g>
<g clip-path="url(#clip1_393_10)">
<path d="M14.4772 13.6988C14.4772 14.5365 14.4772 15.4683 15.1186 16.0581C15.4979 16.4389 16.1653 16.6852 17.2137 16.6852V16.857C16.167 16.857 15.4963 17.1033 15.1186 17.4841C14.4772 18.0933 14.4772 19.0251 14.4772 19.8434H14.2152C14.2152 19.0251 14.2152 18.0933 13.5738 17.4841C13.1668 17.1049 12.5271 16.857 11.4787 16.857V16.6852C12.5254 16.6852 13.1668 16.4389 13.5738 16.0581C14.2152 15.4683 14.2152 14.5365 14.2152 13.6988H14.4772Z" fill="#FFF5C0"/>
</g>
<g clip-path="url(#clip2_393_10)">
<path d="M18.5736 28.8554C18.5736 29.6932 18.5736 30.6249 19.215 31.2147C19.5943 31.5955 20.2617 31.8418 21.3101 31.8418V32.0136C20.2633 32.0136 19.5927 32.2599 19.215 32.6407C18.5736 33.25 18.5736 34.1817 18.5736 35H18.3115C18.3115 34.1817 18.3115 33.25 17.6702 32.6407C17.2632 32.2615 16.6235 32.0136 15.5751 32.0136V31.8418C16.6218 31.8418 17.2632 31.5955 17.6702 31.2147C18.3115 30.6249 18.3115 29.6932 18.3115 28.8554H18.5736Z" fill="#FFF5C0"/>
</g>
<g clip-path="url(#clip3_393_10)">
<path d="M27.0098 0.590363C27.0098 2.99191 27.0098 5.66288 28.8423 7.35372C29.926 8.44533 31.8329 9.1514 34.8281 9.1514V9.64379C31.8375 9.64379 29.9213 10.3499 28.8423 11.4415C27.0098 13.188 27.0098 15.859 27.0098 18.2048H26.2609C26.2609 15.859 26.2609 13.188 24.4284 11.4415C23.2657 10.3545 21.4378 9.64379 18.4426 9.64379V9.1514C21.4332 9.1514 23.2657 8.44533 24.4284 7.35372C26.2609 5.66288 26.2609 2.99191 26.2609 0.590363L27.0098 0.590363Z" fill="#FFF5C0"/>
</g>
<defs>
<clipPath id="clip0_393_10">
<rect width="11.8795" height="12.6988" fill="white" transform="translate(0.828125 22.3012)"/>
</clipPath>
<clipPath id="clip1_393_10">
<rect width="5.73494" height="6.14458" fill="white" transform="translate(11.4787 13.6988)"/>
</clipPath>
<clipPath id="clip2_393_10">
<rect width="5.73494" height="6.14458" fill="white" transform="translate(15.5751 28.8554)"/>
</clipPath>
<clipPath id="clip3_393_10">
<rect width="16.3855" height="17.6145" fill="white" transform="translate(18.4426 0.590363)"/>
</clipPath>
</defs>
</svg>
